<svg width="325" height="70" viewBox="0 0 325 70" fill="none" xmlns="http://www.w3.org/2000/svg">
<path d="M96.34 63.1C95.3267 63.1 94.4133 62.8733 93.6 62.42C92.8 61.9533 92.1667 61.32 91.7 60.52C91.2333 59.7067 91 58.78 91 57.74C91 56.6867 91.2333 55.76 91.7 54.96C92.1667 54.16 92.8 53.5333 93.6 53.08C94.4 52.6267 95.3133 52.4 96.34 52.4C97.38 52.4 98.3 52.6267 99.1 53.08C99.9133 53.5333 100.547 54.16 101 54.96C101.467 55.76 101.7 56.6867 101.7 57.74C101.7 58.78 101.467 59.7067 101 60.52C100.547 61.32 99.9133 61.9533 99.1 62.42C98.2867 62.8733 97.3667 63.1 96.34 63.1ZM96.34 61.84C97.1 61.84 97.7733 61.6733 98.36 61.34C98.9467 60.9933 99.4067 60.5133 99.74 59.9C100.087 59.2733 100.26 58.5533 100.26 57.74C100.26 56.9133 100.087 56.1933 99.74 55.58C99.4067 54.9667 98.9467 54.4933 98.36 54.16C97.7733 53.8133 97.1067 53.64 96.36 53.64C95.6133 53.64 94.9467 53.8133 94.36 54.16C93.7733 54.4933 93.3067 54.9667 92.96 55.58C92.6133 56.1933 92.44 56.9133 92.44 57.74C92.44 58.5533 92.6133 59.2733 92.96 59.9C93.3067 60.5133 93.7733 60.9933 94.36 61.34C94.9467 61.6733 95.6067 61.84 96.34 61.84ZM106.344 63V53.36L106.704 53.74H102.364V52.5H111.744V53.74H107.404L107.764 53.36V63H106.344ZM117.809 63.1C116.716 63.1 115.756 62.8733 114.929 62.42C114.102 61.9533 113.456 61.32 112.989 60.52C112.522 59.7067 112.289 58.78 112.289 57.74C112.289 56.7 112.509 55.78 112.949 54.98C113.402 54.18 114.016 53.5533 114.789 53.1C115.576 52.6333 116.456 52.4 117.429 52.4C118.416 52.4 119.289 52.6267 120.049 53.08C120.822 53.52 121.429 54.1467 121.869 54.96C122.309 55.76 122.529 56.6867 122.529 57.74C122.529 57.8067 122.522 57.88 122.509 57.96C122.509 58.0267 122.509 58.1 122.509 58.18H113.369V57.12H121.749L121.189 57.54C121.189 56.78 121.022 56.1067 120.689 55.52C120.369 54.92 119.929 54.4533 119.369 54.12C118.809 53.7867 118.162 53.62 117.429 53.62C116.709 53.62 116.062 53.7867 115.489 54.12C114.916 54.4533 114.469 54.92 114.149 55.52C113.829 56.12 113.669 56.8067 113.669 57.58V57.8C113.669 58.6 113.842 59.3067 114.189 59.92C114.549 60.52 115.042 60.9933 115.669 61.34C116.309 61.6733 117.036 61.84 117.849 61.84C118.489 61.84 119.082 61.7267 119.629 61.5C120.189 61.2733 120.669 60.9267 121.069 60.46L121.869 61.38C121.402 61.94 120.816 62.3667 120.109 62.66C119.416 62.9533 118.649 63.1 117.809 63.1ZM123.538 62.98L123.638 61.76C123.731 61.7733 123.818 61.7933 123.898 61.82C123.991 61.8333 124.071 61.84 124.138 61.84C124.564 61.84 124.904 61.68 125.158 61.36C125.424 61.04 125.624 60.6133 125.758 60.08C125.891 59.5467 125.984 58.9467 126.038 58.28C126.091 57.6 126.138 56.92 126.178 56.24L126.358 52.5H134.058V63H132.638V53.32L132.998 53.74H127.278L127.618 53.3L127.458 56.34C127.418 57.2467 127.344 58.1133 127.238 58.94C127.144 59.7667 126.991 60.4933 126.778 61.12C126.578 61.7467 126.298 62.24 125.938 62.6C125.578 62.9467 125.118 63.12 124.558 63.12C124.398 63.12 124.231 63.1067 124.058 63.08C123.898 63.0533 123.724 63.02 123.538 62.98ZM142.614 56.2C143.934 56.2133 144.934 56.5067 145.614 57.08C146.308 57.6533 146.654 58.48 146.654 59.56C146.654 60.68 146.281 61.54 145.534 62.14C144.801 62.74 143.734 63.0333 142.334 63.02L138.094 63V52.5H139.514V56.16L142.614 56.2ZM142.254 61.94C143.228 61.9533 143.961 61.76 144.454 61.36C144.961 60.9467 145.214 60.3467 145.214 59.56C145.214 58.7733 144.968 58.2 144.474 57.84C143.981 57.4667 143.241 57.2733 142.254 57.26L139.514 57.22V61.9L142.254 61.94ZM161.798 62.32V53.74H156.738L156.618 56.08C156.591 56.7867 156.545 57.48 156.478 58.16C156.425 58.84 156.325 59.4667 156.178 60.04C156.045 60.6 155.851 61.06 155.598 61.42C155.345 61.7667 155.018 61.9667 154.618 62.02L153.198 61.76C153.611 61.7733 153.951 61.6267 154.218 61.32C154.485 61 154.691 60.5667 154.838 60.02C154.985 59.4733 155.091 58.8533 155.158 58.16C155.225 57.4533 155.278 56.7333 155.318 56L155.458 52.5H163.218V62.32H161.798ZM152.758 65.54V61.76H164.858V65.54H163.518V63H154.098V65.54H152.758ZM165.705 62.98L165.805 61.76C165.899 61.7733 165.985 61.7933 166.065 61.82C166.159 61.8333 166.239 61.84 166.305 61.84C166.732 61.84 167.072 61.68 167.325 61.36C167.592 61.04 167.792 60.6133 167.925 60.08C168.059 59.5467 168.152 58.9467 168.205 58.28C168.259 57.6 168.305 56.92 168.345 56.24L168.525 52.5H176.225V63H174.805V53.32L175.165 53.74H169.445L169.785 53.3L169.625 56.34C169.585 57.2467 169.512 58.1133 169.405 58.94C169.312 59.7667 169.159 60.4933 168.945 61.12C168.745 61.7467 168.465 62.24 168.105 62.6C167.745 62.9467 167.285 63.12 166.725 63.12C166.565 63.12 166.399 63.1067 166.225 63.08C166.065 63.0533 165.892 63.02 165.705 62.98ZM187.042 63V59.22L187.302 59.52H183.742C182.396 59.52 181.342 59.2267 180.582 58.64C179.822 58.0533 179.442 57.2 179.442 56.08C179.442 54.88 179.849 53.9867 180.662 53.4C181.476 52.8 182.562 52.5 183.922 52.5H188.342V63H187.042ZM179.362 63L182.242 58.96H183.722L180.902 63H179.362ZM187.042 58.8V53.32L187.302 53.74H183.962C182.989 53.74 182.229 53.9267 181.682 54.3C181.149 54.6733 180.882 55.28 180.882 56.12C180.882 57.68 181.876 58.46 183.862 58.46H187.302L187.042 58.8ZM202.025 63.1C200.985 63.1 200.052 62.8733 199.225 62.42C198.412 61.9533 197.772 61.32 197.305 60.52C196.839 59.7067 196.605 58.78 196.605 57.74C196.605 56.6867 196.839 55.76 197.305 54.96C197.772 54.16 198.412 53.5333 199.225 53.08C200.052 52.6267 200.985 52.4 202.025 52.4C202.919 52.4 203.725 52.5733 204.445 52.92C205.165 53.2667 205.732 53.7867 206.145 54.48L205.085 55.2C204.725 54.6667 204.279 54.2733 203.745 54.02C203.212 53.7667 202.632 53.64 202.005 53.64C201.259 53.64 200.585 53.8133 199.985 54.16C199.385 54.4933 198.912 54.9667 198.565 55.58C198.219 56.1933 198.045 56.9133 198.045 57.74C198.045 58.5667 198.219 59.2867 198.565 59.9C198.912 60.5133 199.385 60.9933 199.985 61.34C200.585 61.6733 201.259 61.84 202.005 61.84C202.632 61.84 203.212 61.7133 203.745 61.46C204.279 61.2067 204.725 60.82 205.085 60.3L206.145 61.02C205.732 61.7 205.165 62.22 204.445 62.58C203.725 62.9267 202.919 63.1 202.025 63.1ZM213.039 63.1C212.026 63.1 211.113 62.8733 210.299 62.42C209.499 61.9533 208.866 61.32 208.399 60.52C207.933 59.7067 207.699 58.78 207.699 57.74C207.699 56.6867 207.933 55.76 208.399 54.96C208.866 54.16 209.499 53.5333 210.299 53.08C211.099 52.6267 212.013 52.4 213.039 52.4C214.079 52.4 214.999 52.6267 215.799 53.08C216.613 53.5333 217.246 54.16 217.699 54.96C218.166 55.76 218.399 56.6867 218.399 57.74C218.399 58.78 218.166 59.7067 217.699 60.52C217.246 61.32 216.613 61.9533 215.799 62.42C214.986 62.8733 214.066 63.1 213.039 63.1ZM213.039 61.84C213.799 61.84 214.473 61.6733 215.059 61.34C215.646 60.9933 216.106 60.5133 216.439 59.9C216.786 59.2733 216.959 58.5533 216.959 57.74C216.959 56.9133 216.786 56.1933 216.439 55.58C216.106 54.9667 215.646 54.4933 215.059 54.16C214.473 53.8133 213.806 53.64 213.059 53.64C212.313 53.64 211.646 53.8133 211.059 54.16C210.473 54.4933 210.006 54.9667 209.659 55.58C209.313 56.1933 209.139 56.9133 209.139 57.74C209.139 58.5533 209.313 59.2733 209.659 59.9C210.006 60.5133 210.473 60.9933 211.059 61.34C211.646 61.6733 212.306 61.84 213.039 61.84ZM226.154 63.12C225.301 63.12 224.541 62.98 223.874 62.7C223.221 62.42 222.661 61.9933 222.194 61.42C221.727 60.8467 221.374 60.14 221.134 59.3C220.894 58.4467 220.774 57.46 220.774 56.34C220.774 55.34 220.867 54.4667 221.054 53.72C221.241 52.96 221.501 52.3067 221.834 51.76C222.167 51.2133 222.554 50.7533 222.994 50.38C223.447 49.9933 223.934 49.6867 224.454 49.46C224.987 49.22 225.534 49.04 226.094 48.92L230.814 47.82L231.054 49.14L226.614 50.14C226.334 50.2067 225.994 50.3 225.594 50.42C225.207 50.54 224.807 50.72 224.394 50.96C223.994 51.2 223.621 51.5333 223.274 51.96C222.927 52.3867 222.647 52.94 222.434 53.62C222.234 54.2867 222.134 55.12 222.134 56.12C222.134 56.3333 222.141 56.5067 222.154 56.64C222.167 56.76 222.181 56.8933 222.194 57.04C222.221 57.1733 222.241 57.3733 222.254 57.64L221.634 57.12C221.781 56.3067 222.081 55.6 222.534 55C222.987 54.3867 223.554 53.9133 224.234 53.58C224.927 53.2333 225.694 53.06 226.534 53.06C227.507 53.06 228.374 53.2733 229.134 53.7C229.894 54.1133 230.487 54.6933 230.914 55.44C231.354 56.1867 231.574 57.0533 231.574 58.04C231.574 59.0133 231.347 59.8867 230.894 60.66C230.454 61.4333 229.827 62.04 229.014 62.48C228.201 62.9067 227.247 63.12 226.154 63.12ZM226.314 61.94C227.061 61.94 227.721 61.7733 228.294 61.44C228.867 61.0933 229.314 60.6267 229.634 60.04C229.967 59.4533 230.134 58.7933 230.134 58.06C230.134 57.34 229.967 56.7 229.634 56.14C229.314 55.58 228.867 55.14 228.294 54.82C227.721 54.4867 227.054 54.32 226.294 54.32C225.547 54.32 224.887 54.48 224.314 54.8C223.741 55.1067 223.287 55.54 222.954 56.1C222.634 56.66 222.474 57.3067 222.474 58.04C222.474 58.7733 222.634 59.4333 222.954 60.02C223.287 60.6067 223.741 61.0733 224.314 61.42C224.901 61.7667 225.567 61.94 226.314 61.94ZM241.079 63V60.68L241.019 60.3V56.42C241.019 55.5267 240.766 54.84 240.259 54.36C239.766 53.88 239.026 53.64 238.039 53.64C237.359 53.64 236.712 53.7533 236.099 53.98C235.486 54.2067 234.966 54.5067 234.539 54.88L233.899 53.82C234.432 53.3667 235.072 53.02 235.819 52.78C236.566 52.5267 237.352 52.4 238.179 52.4C239.539 52.4 240.586 52.74 241.319 53.42C242.066 54.0867 242.439 55.1067 242.439 56.48V63H241.079ZM237.459 63.1C236.672 63.1 235.986 62.9733 235.399 62.72C234.826 62.4533 234.386 62.0933 234.079 61.64C233.772 61.1733 233.619 60.64 233.619 60.04C233.619 59.4933 233.746 59 233.999 58.56C234.266 58.1067 234.692 57.7467 235.279 57.48C235.879 57.2 236.679 57.06 237.679 57.06H241.299V58.12H237.719C236.706 58.12 235.999 58.3 235.599 58.66C235.212 59.02 235.019 59.4667 235.019 60C235.019 60.6 235.252 61.08 235.719 61.44C236.186 61.8 236.839 61.98 237.679 61.98C238.479 61.98 239.166 61.8 239.739 61.44C240.326 61.0667 240.752 60.5333 241.019 59.84L241.339 60.82C241.072 61.5133 240.606 62.0667 239.939 62.48C239.286 62.8933 238.459 63.1 237.459 63.1ZM253.919 63L249.599 57.8L250.779 57.1L255.599 63H253.919ZM246.219 63V52.5H247.639V63H246.219ZM247.199 58.32V57.1H250.579V58.32H247.199ZM250.899 57.9L249.579 57.7L253.759 52.5H255.299L250.899 57.9Z" fill="black"/>
<path d="M92.988 35V9.8H104.436C107.172 9.8 109.584 10.328 111.672 11.384C113.76 12.416 115.392 13.868 116.568 15.74C117.744 17.612 118.332 19.832 118.332 22.4C118.332 24.944 117.744 27.164 116.568 29.06C115.392 30.932 113.76 32.396 111.672 33.452C109.584 34.484 107.172 35 104.436 35H92.988ZM98.82 30.212H104.148C105.828 30.212 107.28 29.9 108.504 29.276C109.752 28.628 110.712 27.716 111.384 26.54C112.08 25.364 112.428 23.984 112.428 22.4C112.428 20.792 112.08 19.412 111.384 18.26C110.712 17.084 109.752 16.184 108.504 15.56C107.28 14.912 105.828 14.588 104.148 14.588H98.82V30.212ZM131.55 35.288C129.486 35.288 127.65 34.856 126.042 33.992C124.458 33.128 123.198 31.952 122.262 30.464C121.35 28.952 120.894 27.236 120.894 25.316C120.894 23.372 121.35 21.656 122.262 20.168C123.198 18.656 124.458 17.48 126.042 16.64C127.65 15.776 129.486 15.344 131.55 15.344C133.59 15.344 135.414 15.776 137.022 16.64C138.63 17.48 139.89 18.644 140.802 20.132C141.714 21.62 142.17 23.348 142.17 25.316C142.17 27.236 141.714 28.952 140.802 30.464C139.89 31.952 138.63 33.128 137.022 33.992C135.414 34.856 133.59 35.288 131.55 35.288ZM131.55 30.68C132.486 30.68 133.326 30.464 134.07 30.032C134.814 29.6 135.402 28.988 135.834 28.196C136.266 27.38 136.482 26.42 136.482 25.316C136.482 24.188 136.266 23.228 135.834 22.436C135.402 21.644 134.814 21.032 134.07 20.6C133.326 20.168 132.486 19.952 131.55 19.952C130.614 19.952 129.774 20.168 129.03 20.6C128.286 21.032 127.686 21.644 127.23 22.436C126.798 23.228 126.582 24.188 126.582 25.316C126.582 26.42 126.798 27.38 127.23 28.196C127.686 28.988 128.286 29.6 129.03 30.032C129.774 30.464 130.614 30.68 131.55 30.68ZM155.032 42.272C153.208 42.272 151.444 42.044 149.74 41.588C148.06 41.156 146.656 40.496 145.528 39.608L147.76 35.576C148.576 36.248 149.608 36.776 150.856 37.16C152.128 37.568 153.376 37.772 154.6 37.772C156.592 37.772 158.032 37.328 158.92 36.44C159.832 35.552 160.288 34.232 160.288 32.48V29.564L160.648 24.704L160.576 19.808V15.632H165.904V31.76C165.904 35.36 164.968 38.012 163.096 39.716C161.224 41.42 158.536 42.272 155.032 42.272ZM154.168 34.064C152.368 34.064 150.736 33.68 149.272 32.912C147.832 32.12 146.668 31.028 145.78 29.636C144.916 28.22 144.484 26.576 144.484 24.704C144.484 22.808 144.916 21.164 145.78 19.772C146.668 18.356 147.832 17.264 149.272 16.496C150.736 15.728 152.368 15.344 154.168 15.344C155.8 15.344 157.24 15.68 158.488 16.352C159.736 17 160.708 18.02 161.404 19.412C162.1 20.78 162.448 22.544 162.448 24.704C162.448 26.84 162.1 28.604 161.404 29.996C160.708 31.364 159.736 32.384 158.488 33.056C157.24 33.728 155.8 34.064 154.168 34.064ZM155.284 29.456C156.268 29.456 157.144 29.264 157.912 28.88C158.68 28.472 159.28 27.908 159.712 27.188C160.144 26.468 160.36 25.64 160.36 24.704C160.36 23.744 160.144 22.916 159.712 22.22C159.28 21.5 158.68 20.948 157.912 20.564C157.144 20.156 156.268 19.952 155.284 19.952C154.3 19.952 153.424 20.156 152.656 20.564C151.888 20.948 151.276 21.5 150.82 22.22C150.388 22.916 150.172 23.744 150.172 24.704C150.172 25.64 150.388 26.468 150.82 27.188C151.276 27.908 151.888 28.472 152.656 28.88C153.424 29.264 154.3 29.456 155.284 29.456ZM183.587 35.432C181.643 35.432 179.831 35.12 178.151 34.496C176.495 33.848 175.055 32.936 173.831 31.76C172.607 30.584 171.647 29.204 170.951 27.62C170.279 26.036 169.943 24.296 169.943 22.4C169.943 20.504 170.279 18.764 170.951 17.18C171.647 15.596 172.607 14.216 173.831 13.04C175.079 11.864 176.531 10.964 178.187 10.34C179.843 9.692 181.655 9.368 183.623 9.368C185.807 9.368 187.775 9.752 189.527 10.52C191.303 11.264 192.791 12.368 193.991 13.832L190.247 17.288C189.383 16.304 188.423 15.572 187.367 15.092C186.311 14.588 185.159 14.336 183.911 14.336C182.735 14.336 181.655 14.528 180.671 14.912C179.687 15.296 178.835 15.848 178.115 16.568C177.395 17.288 176.831 18.14 176.423 19.124C176.039 20.108 175.847 21.2 175.847 22.4C175.847 23.6 176.039 24.692 176.423 25.676C176.831 26.66 177.395 27.512 178.115 28.232C178.835 28.952 179.687 29.504 180.671 29.888C181.655 30.272 182.735 30.464 183.911 30.464C185.159 30.464 186.311 30.224 187.367 29.744C188.423 29.24 189.383 28.484 190.247 27.476L193.991 30.932C192.791 32.396 191.303 33.512 189.527 34.28C187.775 35.048 185.795 35.432 183.587 35.432ZM206.081 35.288C204.017 35.288 202.181 34.856 200.573 33.992C198.989 33.128 197.729 31.952 196.793 30.464C195.881 28.952 195.425 27.236 195.425 25.316C195.425 23.372 195.881 21.656 196.793 20.168C197.729 18.656 198.989 17.48 200.573 16.64C202.181 15.776 204.017 15.344 206.081 15.344C208.121 15.344 209.945 15.776 211.553 16.64C213.161 17.48 214.421 18.644 215.333 20.132C216.245 21.62 216.701 23.348 216.701 25.316C216.701 27.236 216.245 28.952 215.333 30.464C214.421 31.952 213.161 33.128 211.553 33.992C209.945 34.856 208.121 35.288 206.081 35.288ZM206.081 30.68C207.017 30.68 207.857 30.464 208.601 30.032C209.345 29.6 209.933 28.988 210.365 28.196C210.797 27.38 211.013 26.42 211.013 25.316C211.013 24.188 210.797 23.228 210.365 22.436C209.933 21.644 209.345 21.032 208.601 20.6C207.857 20.168 207.017 19.952 206.081 19.952C205.145 19.952 204.305 20.168 203.561 20.6C202.817 21.032 202.217 21.644 201.761 22.436C201.329 23.228 201.113 24.188 201.113 25.316C201.113 26.42 201.329 27.38 201.761 28.196C202.217 28.988 202.817 29.6 203.561 30.032C204.305 30.464 205.145 30.68 206.081 30.68ZM245.259 15.344C246.795 15.344 248.151 15.656 249.327 16.28C250.527 16.88 251.463 17.816 252.135 19.088C252.831 20.336 253.179 21.944 253.179 23.912V35H247.563V24.776C247.563 23.216 247.239 22.064 246.591 21.32C245.943 20.576 245.031 20.204 243.855 20.204C243.039 20.204 242.307 20.396 241.659 20.78C241.011 21.14 240.507 21.692 240.147 22.436C239.787 23.18 239.607 24.128 239.607 25.28V35H233.991V24.776C233.991 23.216 233.667 22.064 233.019 21.32C232.395 20.576 231.495 20.204 230.319 20.204C229.503 20.204 228.771 20.396 228.123 20.78C227.475 21.14 226.971 21.692 226.611 22.436C226.251 23.18 226.071 24.128 226.071 25.28V35H220.455V15.632H225.819V20.924L224.811 19.376C225.483 18.056 226.431 17.06 227.655 16.388C228.903 15.692 230.319 15.344 231.903 15.344C233.679 15.344 235.227 15.8 236.547 16.712C237.891 17.6 238.779 18.968 239.211 20.816L237.231 20.276C237.879 18.764 238.911 17.564 240.327 16.676C241.767 15.788 243.411 15.344 245.259 15.344ZM258.897 35V15.2C258.897 13.016 259.545 11.276 260.841 9.98C262.137 8.66 263.985 8 266.385 8C267.201 8 267.981 8.084 268.725 8.252C269.493 8.42 270.141 8.684 270.669 9.044L269.193 13.112C268.881 12.896 268.533 12.728 268.149 12.608C267.765 12.488 267.357 12.428 266.925 12.428C266.109 12.428 265.473 12.668 265.017 13.148C264.585 13.604 264.369 14.3 264.369 15.236V17.036L264.513 19.448V35H258.897ZM255.909 20.384V16.064H269.337V20.384H255.909ZM281.105 35.288C279.041 35.288 277.205 34.856 275.597 33.992C274.013 33.128 272.753 31.952 271.817 30.464C270.905 28.952 270.449 27.236 270.449 25.316C270.449 23.372 270.905 21.656 271.817 20.168C272.753 18.656 274.013 17.48 275.597 16.64C277.205 15.776 279.041 15.344 281.105 15.344C283.145 15.344 284.969 15.776 286.577 16.64C288.185 17.48 289.445 18.644 290.357 20.132C291.269 21.62 291.725 23.348 291.725 25.316C291.725 27.236 291.269 28.952 290.357 30.464C289.445 31.952 288.185 33.128 286.577 33.992C284.969 34.856 283.145 35.288 281.105 35.288ZM281.105 30.68C282.041 30.68 282.881 30.464 283.625 30.032C284.369 29.6 284.957 28.988 285.389 28.196C285.821 27.38 286.037 26.42 286.037 25.316C286.037 24.188 285.821 23.228 285.389 22.436C284.957 21.644 284.369 21.032 283.625 20.6C282.881 20.168 282.041 19.952 281.105 19.952C280.169 19.952 279.329 20.168 278.585 20.6C277.841 21.032 277.241 21.644 276.785 22.436C276.353 23.228 276.137 24.188 276.137 25.316C276.137 26.42 276.353 27.38 276.785 28.196C277.241 28.988 277.841 29.6 278.585 30.032C279.329 30.464 280.169 30.68 281.105 30.68ZM295.479 35V15.632H300.843V21.104L300.087 19.52C300.663 18.152 301.587 17.12 302.859 16.424C304.131 15.704 305.679 15.344 307.503 15.344V20.528C307.263 20.504 307.047 20.492 306.855 20.492C306.663 20.468 306.459 20.456 306.243 20.456C304.707 20.456 303.459 20.9 302.499 21.788C301.563 22.652 301.095 24.008 301.095 25.856V35H295.479ZM319.43 35.288C317.15 35.288 315.374 34.712 314.102 33.56C312.83 32.384 312.194 30.644 312.194 28.34V11.348H317.81V28.268C317.81 29.084 318.026 29.72 318.458 30.176C318.89 30.608 319.478 30.824 320.222 30.824C321.11 30.824 321.866 30.584 322.49 30.104L324.002 34.064C323.426 34.472 322.73 34.784 321.914 35C321.122 35.192 320.294 35.288 319.43 35.288ZM309.206 20.384V16.064H322.634V20.384H309.206Z" fill="black"/>
<circle cx="35" cy="35" r="35" fill="white"/>
<path d="M27.6729 24.6709C30.4557 28.3844 30.7564 32.7814 28.3374 34.4994C25.9255 36.2172 21.7107 34.5952 18.9293 30.8822C16.1465 27.1687 15.8454 22.7708 18.2581 21.057C20.6721 19.346 24.8905 20.9584 27.6729 24.6709ZM14.0249 36.2767C12.4691 37.9799 13.5174 41.2477 16.3676 43.576C19.2177 45.9044 22.7852 46.4118 24.34 44.7069C25.8957 43.0037 24.8475 39.7359 21.9905 37.4109C19.1458 35.0788 15.5788 34.57 14.0249 36.2767ZM30.5864 23.2367C31.8331 27.7063 35.1334 30.6267 37.9644 29.7602C40.7967 28.8965 42.0875 24.5642 40.8422 20.095C39.5965 15.6249 36.2948 12.7041 33.4642 13.5714C30.6292 14.4443 29.3411 18.7675 30.5864 23.2367ZM44.1411 26.5056C44.2481 30.1843 46.199 33.0089 48.4971 32.8138C50.7902 32.6256 52.5691 29.4852 52.4563 25.8093C52.356 22.1272 50.4056 19.3036 48.1071 19.4978C45.8082 19.6888 44.0351 22.8264 44.1411 26.5056ZM33.1916 32.1588L33.1943 32.1642C33.2368 32.1432 33.271 32.1197 33.3136 32.0988L33.1916 32.1588ZM33.0329 32.2369C33.0697 32.2188 33.1149 32.2033 33.1575 32.1823L33.1548 32.1769L33.0329 32.2369ZM50.9668 36.6925C45.3672 32.9168 40.2135 28.789 33.1943 32.1642C33.1885 32.167 33.1821 32.1713 33.1705 32.177L33.1589 32.1827C26.2032 35.6871 26.3252 42.2908 25.9024 49.0311C25.4756 55.8124 30.5581 57.2135 33.4927 57.1732C36.4332 57.13 39.4372 55.2789 40.7851 53.5833C41.9463 52.1268 42.6895 51.9437 42.8734 51.9167L42.884 51.9382C42.884 51.9382 42.8872 51.93 42.8904 51.9217C42.9056 51.9209 42.9199 51.9206 42.9199 51.9206L42.9092 51.899C43.0428 51.7698 43.6402 51.2929 45.5037 51.2605C47.6685 51.2268 50.9676 49.975 52.7893 47.6739C54.6169 45.37 56.6057 40.4868 50.9668 36.6925Z" fill="black"/>
</svg>
